<?xml version="1.0" standalone="no"?><!DOCTYPE svg PUBLIC "-//W3C//DTD SVG 1.1//EN" "http://www.w3.org/Graphics/SVG/1.1/DTD/svg11.dtd"><svg t="1760611275349" class="icon" viewBox="0 0 1024 1024" version="1.1" xmlns="http://www.w3.org/2000/svg" p-id="9400" xmlns:xlink="http://www.w3.org/1999/xlink" width="200" height="200"><path d="M686.791443 637.911688l83.519182 223.432769-83.519182 31.408337-96.369861-256.983909c-24.270776-0.474814-123.732046-2.142803-145.623635-2.142803L341.292572 885.61421l-82.09167-34.262338 91.372034-223.434815c-19.98824-4.757351-37.239136-12.728906-51.753711-23.912619-14.515598-11.183713-58.178027-48.720631-58.178027-94.941326 0-20.777209-5.711072-313.732377-5.711072-313.732377 0-9.041934 0-67.101257 67.101257-67.101257 65.668629 0 66.624397 55.204299 67.100234 64.246233 0 0 0.714268 197.971887 0.714268 214.151381 0 32.361035 7.971555 56.513108 23.913643 72.455195 15.943111 15.943111 41.522696 23.914666 76.738755 23.914666 0 0 221.052558 1.428535 256.268618 1.428535 9.041934 0 66.38699 1.895163 66.38699 66.38699 0 59.895135-57.345056 67.100234-66.38699 67.100234L686.791443 637.912711 686.791443 637.911688z" fill="#CCCCCC" p-id="9401"></path></svg>