<?xml version="1.0" standalone="no"?><!DOCTYPE svg PUBLIC "-//W3C//DTD SVG 1.1//EN" "http://www.w3.org/Graphics/SVG/1.1/DTD/svg11.dtd"><svg t="1760611217567" class="icon" viewBox="0 0 1024 1024" version="1.1" xmlns="http://www.w3.org/2000/svg" p-id="8314" xmlns:xlink="http://www.w3.org/1999/xlink" width="200" height="200"><path d="M512 1020c-8.8 0-16-7.2-16-16V693.6c0-8.8 7.2-16 16-16s16 7.2 16 16v310.4c0 8.8-7.2 16-16 16z" fill="#303C42" p-id="8315"></path><path d="M786.4 700.8H237.6c-23.2 0-44.8-10.4-59.2-28-14.4-17.6-20-40-15.2-62.4L279.2 64c7.2-34.4 38.4-60 74.4-60h316.8c36 0 67.2 24.8 74.4 60l116 546.4c4.8 22.4-0.8 44.8-15.2 62.4-14.4 17.6-36 28-59.2 28zM353.6 36c-20.8 0-38.4 14.4-43.2 34.4L194.4 616.8c-2.4 12.8 0.8 25.6 8.8 36 8 10.4 20.8 16 34.4 16h548.8c13.6 0 25.6-5.6 34.4-16 8-10.4 11.2-23.2 8.8-36L713.6 70.4c-4-20-22.4-34.4-43.2-34.4H353.6zM698.4 1020H325.6c-8.8 0-16-7.2-16-16s7.2-16 16-16h372c8.8 0 16 7.2 16 16s-6.4 16-15.2 16z" fill="#303C42" p-id="8316"></path><path d="M288 692.8h-0.8c-4-0.8-7.2-4.8-7.2-8.8l77.6-592c0.8-4 4.8-7.2 8.8-7.2 4 0.8 7.2 4.8 7.2 8.8l-77.6 592c-0.8 4-4 7.2-8 7.2zM400 692.8c-4.8 0-8-4-8-8.8l38.4-592c0-4.8 4-8 8.8-7.2 4.8 0 8 4 7.2 8.8l-38.4 592c0 4-4 7.2-8 7.2zM512 692.8c-4.8 0-8-3.2-8-8v-592c0-4.8 3.2-8 8-8s8 3.2 8 8v592c0 4.8-3.2 8-8 8zM624 692.8c-4 0-8-3.2-8-7.2l-38.4-592c0-4.8 3.2-8 7.2-8.8 4 0 8 3.2 8.8 7.2l38.4 592c0 4.8-3.2 8.8-8 8.8zM736 692.8c-4 0-7.2-3.2-8-7.2l-77.6-592c-0.8-4 2.4-8 7.2-8.8 4-0.8 8 2.4 8.8 7.2l77.6 592c0.8 4-2.4 8-7.2 8.8H736z" fill="#303C42" p-id="8317"></path></svg>